{"title":"The Smurfs Season2,Vol1 True Blue Friends 2009 DVDRip LKRG","uid":5706117,"size":1886810221,"categoryP":"video","categoryS":"movies","magnet":"?xt=urn:btih:e9809072f34997e396df04161f74354865290655&amp;dn=The+Smurfs+Season2%2CVol1+True+Blue+Friends+2009+DVDRip+LKRG&amp;tr=udp%3A%2F%2Ftracker.openbittorrent.com%3A80&amp;tr=udp%3A%2F%2Fopen.demonii.com%3A1337&amp;tr=udp%3A%2F%2Ftracker.coppersurfer.tk%3A6969&amp;tr=udp%3A%2F%2Fexodus.desync.com%3A6969","seeders":1,"leechers":0,"uploader":"neon","files":3,"time":1279688866,"description":"This DVD features the following 5 episodes that originally aired during the fall of 1982.\n\n\n1. &quot;S-Shivering S-Smurfs&quot;: It's autumn and Tracker Smurf thinks an early blizzard is coming. However, the other smurfs don't believe him, since it's so hot outside. When the snowstorm hits, will Tracker be able to save the day?\n\n\n\n2. &quot;Turncoat Smurf&quot;: When Papa Smurf goes into a 3-day trance, the other smurfs decide to relax and do nothing. But Brainy Smurf starts keeping tabs on the others, which lead them to suspect that he's up to something. Has Brainy Smurf decided to sell out to Gargamel?\n\n\n\n3. &quot;The Smurf Who Couldn't Say No&quot;: Pushover Smurf can't say no to the other smurfs' requests, even when they're more than he can handle. However, a plea for help from Scaredy Smurf lands him, and the whole village, in trouble.\n\n\n\n4. &quot;The Haunted Castle&quot;: Papa, Brainy and Smurfette, along with their pals Johan and Peewit, take refuge in a cursed castle haunted by a lonely ghost. Can Papa and Johan break the curse, and find the castle's true heir?\n\n\n\n5.&quot;The Black Hellebore&quot;: Evil potion maker Cloderick uses the Black Hellebore, a plant with mysterious powers, to hypnotize everyone and take control of the kingdom. Can Johan, Peewit and the smurfs save the kingdom from the villainous plot?\n\n\n\n\n\n\nGeneral Info\n\nGeneral:\n\nComplete name : The Smurfs Season2,Vol1 True Blue Friends 2009 DVDRip BigPermLKRGTSTBFLKRG.m4v\nFormat : MPEG-4\nFormat profile : Base Media / Version 2\nCodec ID : mp42\nFile size : 1.76 GiB\nDuration : 1h 43mn\nOverall bit rate : 2 440 Kbps\n\nVideo:\n\nID : 1\nFormat : AVC\nFormat/Info : Advanced Video Codec\nFormat profile : &lt;a class=&quot;__cf_email__&quot; href=&quot;/cdn-cgi/l/email-protection&quot; data-cfemail=&quot;5e133f37301e126d706e&quot;&gt;[email&amp;#160;protected]&lt;/a&gt;&lt;script cf-hash='f9e31' type=&quot;text/javascript&quot;&gt;\n/* &lt;![CDATA[ */!function(){try{var t=&quot;currentScript&quot;in document?document.currentScript:function(){for(var t=document.getElementsByTagName(&quot;script&quot;),e=t.length;e--;)if(t[e].getAttribute(&quot;cf-hash&quot;))return t[e]}();if(t&amp;&amp;t.previousSibling){var e,r,n,i,c=t.previousSibling,a=c.getAttribute(&quot;data-cfemail&quot;);if(a){for(e=&quot;&quot;,r=parseInt(a.substr(0,2),16),n=2;a.length-n;n+=2)i=parseInt(a.substr(n,2),16)^r,e+=String.fromCharCode(i);e=document.createTextNode(e),c.parentNode.replaceChild(e,c)}}}catch(u){}}();/* ]]&gt; */&lt;/script&gt;\nFormat settings, CABAC : Yes\nFormat settings, ReFrames : 2 frames\nCodec ID : avc1\nCodec ID/Info : Advanced Video Coding\nDuration : 1h 43mn\nBit rate mode : Variable\nBit rate : 2 353 Kbps\nWidth : 702 pixels\nHeight : 480 pixels\nDisplay aspect ratio : 1.300\nFrame rate mode : Variable\nFrame rate : 29.970 fps\nMinimum frame rate : 14.983 fps\nMaximum frame rate : 62.155 fps\nResolution : 8 bits\nColorimetry : 4:2:0\nScan type : Progressive\nBits/(Pixel*Frame) : 0.233\nStream size : 1.69 GiB (96%)\nWriting library : x264 core 79\n\nAudio:\n\nID : 2\nFormat : AAC\nFormat/Info : Advanced Audio Codec\nFormat version : Version 4\nFormat profile : LC\nFormat settings, SBR : No\nFormat settings, PS : Yes\nCodec ID : 40\nDuration : 1h 43mn\nBit rate mode : Variable\nBit rate : 82.7 Kbps\nMaximum bit rate : 110 Kbps\nChannel(s) : 2 channels\nChannel positions : Front: L R\nSampling rate : 48.0 KHz\nStream size : 61.0 MiB (3%)\nLanguage : English\n\n\nRelease Date\nMarch 3, 2009","torrent":{"xt":"urn:btih:e9809072f34997e396df04161f74354865290655","amp;dn":"The+Smurfs+Season2%2CVol1+True+Blue+Friends+2009+DVDRip+LKRG","amp;tr":["udp%3A%2F%2Ftracker.openbittorrent.com%3A80","udp%3A%2F%2Fopen.demonii.com%3A1337","udp%3A%2F%2Ftracker.coppersurfer.tk%3A6969","udp%3A%2F%2Fexodus.desync.com%3A6969"],"infoHash":"e9809072f34997e396df04161f74354865290655","infoHashBuffer":{"type":"Buffer","data":[233,128,144,114,243,73,151,227,150,223,4,22,31,116,53,72,101,41,6,85]},"announce":[],"urlList":[]}}